<?xml version="1.0" encoding="UTF-8" standalone="no"?><svg xmlns="http://www.w3.org/2000/svg" xmlns:xlink="http://www.w3.org/1999/xlink" contentScriptType="application/ecmascript" contentStyleType="text/css" height="530px" preserveAspectRatio="none" style="width:2395px;height:530px;" version="1.1" viewBox="0 0 2395 530" width="2395px" zoomAndPan="magnify"><defs><filter height="300%" id="f1bijyn8ckolc1" width="300%" x="-1" y="-1"><feGaussianBlur result="blurOut" stdDeviation="2.0"/><feColorMatrix in="blurOut" result="blurOut2" type="matrix" values="0 0 0 0 0 0 0 0 0 0 0 0 0 0 0 0 0 0 .4 0"/><feOffset dx="4.0" dy="4.0" in="blurOut2" result="blurOut3"/><feBlend in="SourceGraphic" in2="blurOut3" mode="normal"/></filter></defs><g><!--MD5=[a3638c1e5b65d287ecad7f06f5c0f212]
class Role--><rect fill="#FEFECE" filter="url(#f1bijyn8ckolc1)" height="78.4141" id="Role" style="stroke: #A80036; stroke-width: 1.5;" width="59" x="536" y="162"/><ellipse cx="551" cy="178" fill="#EB937F" rx="11" ry="11" style="stroke: #A80036; stroke-width: 1.0;"/><path d="M555.1094,184 L547.3906,184 L547.3906,171.6094 L555.1094,171.6094 L555.1094,173.7656 L549.8438,173.7656 L549.8438,176.4375 L554.6094,176.4375 L554.6094,178.5938 L549.8438,178.5938 L549.8438,181.8438 L555.1094,181.8438 L555.1094,184 Z "/><text fill="#000000" font-family="sans-serif" font-size="12" lengthAdjust="spacingAndGlyphs" textLength="27" x="565" y="182.1543">Role</text><line style="stroke: #A80036; stroke-width: 1.5;" x1="537" x2="594" y1="194" y2="194"/><text fill="#000000" font-family="sans-serif" font-size="11" lengthAdjust="spacingAndGlyphs" textLength="35" x="542" y="208.2104">owner</text><text fill="#000000" font-family="sans-serif" font-size="11" lengthAdjust="spacingAndGlyphs" textLength="33" x="542" y="221.0151">editor</text><text fill="#000000" font-family="sans-serif" font-size="11" lengthAdjust="spacingAndGlyphs" textLength="37" x="542" y="233.8198">viewer</text><!--MD5=[fa83d41f4bafa71bd17a0b87e511eef2]
class LinkType--><rect fill="#FEFECE" filter="url(#f1bijyn8ckolc1)" height="78.4141" id="LinkType" style="stroke: #A80036; stroke-width: 1.5;" width="85" x="1625" y="58"/><ellipse cx="1640" cy="74" fill="#EB937F" rx="11" ry="11" style="stroke: #A80036; stroke-width: 1.0;"/><path d="M1644.1094,80 L1636.3906,80 L1636.3906,67.6094 L1644.1094,67.6094 L1644.1094,69.7656 L1638.8438,69.7656 L1638.8438,72.4375 L1643.6094,72.4375 L1643.6094,74.5938 L1638.8438,74.5938 L1638.8438,77.8438 L1644.1094,77.8438 L1644.1094,80 Z "/><text fill="#000000" font-family="sans-serif" font-size="12" lengthAdjust="spacingAndGlyphs" textLength="53" x="1654" y="78.1543">LinkType</text><line style="stroke: #A80036; stroke-width: 1.5;" x1="1626" x2="1709" y1="90" y2="90"/><text fill="#000000" font-family="sans-serif" font-size="11" lengthAdjust="spacingAndGlyphs" textLength="36" x="1631" y="104.2104">theme</text><text fill="#000000" font-family="sans-serif" font-size="11" lengthAdjust="spacingAndGlyphs" textLength="45" x="1631" y="117.0151">timeline</text><text fill="#000000" font-family="sans-serif" font-size="11" lengthAdjust="spacingAndGlyphs" textLength="22" x="1631" y="129.8198">soft</text><!--MD5=[3fd616f346a44cd59a91eb10b19e157c]
class User--><rect fill="#FEFECE" filter="url(#f1bijyn8ckolc1)" height="65.6094" id="User" style="stroke: #A80036; stroke-width: 1.5;" width="128" x="6" y="228"/><ellipse cx="51.25" cy="244" fill="#ADD1B2" rx="11" ry="11" style="stroke: #A80036; stroke-width: 1.0;"/><path d="M54.2188,249.6406 Q53.6406,249.9375 53,250.0781 Q52.3594,250.2344 51.6563,250.2344 Q49.1563,250.2344 47.8281,248.5938 Q46.5156,246.9375 46.5156,243.8125 Q46.5156,240.6875 47.8281,239.0313 Q49.1563,237.375 51.6563,237.375 Q52.3594,237.375 53,237.5313 Q53.6563,237.6875 54.2188,237.9844 L54.2188,240.7031 Q53.5938,240.125 53,239.8594 Q52.4063,239.5781 51.7813,239.5781 Q50.4375,239.5781 49.75,240.6563 Q49.0625,241.7188 49.0625,243.8125 Q49.0625,245.9063 49.75,246.9844 Q50.4375,248.0469 51.7813,248.0469 Q52.4063,248.0469 53,247.7813 Q53.5938,247.5 54.2188,246.9219 L54.2188,249.6406 Z "/><text fill="#000000" font-family="sans-serif" font-size="12" lengthAdjust="spacingAndGlyphs" textLength="29" x="71.75" y="248.1543">User</text><line style="stroke: #A80036; stroke-width: 1.5;" x1="7" x2="133" y1="260" y2="260"/><text fill="#000000" font-family="sans-serif" font-size="11" lengthAdjust="spacingAndGlyphs" textLength="66" x="12" y="274.2104">sub : string</text><text fill="#000000" font-family="sans-serif" font-size="11" lengthAdjust="spacingAndGlyphs" textLength="116" x="12" y="287.0151">createdAt : datetime</text><!--MD5=[77463bb17ddcfe3891c27a1f4a877731]
class Membership--><rect fill="#FEFECE" filter="url(#f1bijyn8ckolc1)" height="65.6094" id="Membership" style="stroke: #A80036; stroke-width: 1.5;" width="119" x="195" y="228"/><ellipse cx="214.95" cy="244" fill="#ADD1B2" rx="11" ry="11" style="stroke: #A80036; stroke-width: 1.0;"/><path d="M217.9188,249.6406 Q217.3406,249.9375 216.7,250.0781 Q216.0594,250.2344 215.3563,250.2344 Q212.8563,250.2344 211.5281,248.5938 Q210.2156,246.9375 210.2156,243.8125 Q210.2156,240.6875 211.5281,239.0313 Q212.8563,237.375 215.3563,237.375 Q216.0594,237.375 216.7,237.5313 Q217.3563,237.6875 217.9188,237.9844 L217.9188,240.7031 Q217.2938,240.125 216.7,239.8594 Q216.1063,239.5781 215.4813,239.5781 Q214.1375,239.5781 213.45,240.6563 Q212.7625,241.7188 212.7625,243.8125 Q212.7625,245.9063 213.45,246.9844 Q214.1375,248.0469 215.4813,248.0469 Q216.1063,248.0469 216.7,247.7813 Q217.2938,247.5 217.9188,246.9219 L217.9188,249.6406 Z "/><text fill="#000000" font-family="sans-serif" font-size="12" lengthAdjust="spacingAndGlyphs" textLength="76" x="230.05" y="248.1543">Membership</text><line style="stroke: #A80036; stroke-width: 1.5;" x1="196" x2="313" y1="260" y2="260"/><text fill="#000000" font-family="sans-serif" font-size="11" lengthAdjust="spacingAndGlyphs" textLength="58" x="201" y="274.2104">role : Role</text><text fill="#000000" font-family="sans-serif" font-size="11" lengthAdjust="spacingAndGlyphs" textLength="107" x="201" y="287.0151">joinedAt : datetime</text><!--MD5=[4dfc6a72b8dd60daa1b635d583ff79da]
class Map--><rect fill="#FEFECE" filter="url(#f1bijyn8ckolc1)" height="91.2188" id="Map" style="stroke: #A80036; stroke-width: 1.5;" width="187" x="472" y="275.5"/><ellipse cx="548.25" cy="291.5" fill="#ADD1B2" rx="11" ry="11" style="stroke: #A80036; stroke-width: 1.0;"/><path d="M551.2188,297.1406 Q550.6406,297.4375 550,297.5781 Q549.3594,297.7344 548.6563,297.7344 Q546.1563,297.7344 544.8281,296.0938 Q543.5156,294.4375 543.5156,291.3125 Q543.5156,288.1875 544.8281,286.5313 Q546.1563,284.875 548.6563,284.875 Q549.3594,284.875 550,285.0313 Q550.6563,285.1875 551.2188,285.4844 L551.2188,288.2031 Q550.5938,287.625 550,287.3594 Q549.4063,287.0781 548.7813,287.0781 Q547.4375,287.0781 546.75,288.1563 Q546.0625,289.2188 546.0625,291.3125 Q546.0625,293.4063 546.75,294.4844 Q547.4375,295.5469 548.7813,295.5469 Q549.4063,295.5469 550,295.2813 Q550.5938,295 551.2188,294.4219 L551.2188,297.1406 Z "/><text fill="#000000" font-family="sans-serif" font-size="12" lengthAdjust="spacingAndGlyphs" textLength="26" x="568.75" y="295.6543">Map</text><line style="stroke: #A80036; stroke-width: 1.5;" x1="473" x2="658" y1="307.5" y2="307.5"/><text fill="#000000" font-family="sans-serif" font-size="11" lengthAdjust="spacingAndGlyphs" textLength="55" x="478" y="321.7104">id : string</text><text fill="#000000" font-family="sans-serif" font-size="11" lengthAdjust="spacingAndGlyphs" textLength="175" x="478" y="334.5151">name : string [0..1] "root only"</text><text fill="#000000" font-family="sans-serif" font-size="11" lengthAdjust="spacingAndGlyphs" textLength="143" x="478" y="347.3198">nodeCount : int "max 50"</text><text fill="#000000" font-family="sans-serif" font-size="11" lengthAdjust="spacingAndGlyphs" textLength="120" x="478" y="360.1245">viewCount : int "1..3"</text><!--MD5=[c045e12321b83266d36d22b9096c24ea]
class View--><rect fill="#FEFECE" filter="url(#f1bijyn8ckolc1)" height="91.2188" id="View" style="stroke: #A80036; stroke-width: 1.5;" width="155" x="720" y="140.5"/><ellipse cx="779.25" cy="156.5" fill="#ADD1B2" rx="11" ry="11" style="stroke: #A80036; stroke-width: 1.0;"/><path d="M782.2188,162.1406 Q781.6406,162.4375 781,162.5781 Q780.3594,162.7344 779.6563,162.7344 Q777.1563,162.7344 775.8281,161.0938 Q774.5156,159.4375 774.5156,156.3125 Q774.5156,153.1875 775.8281,151.5313 Q777.1563,149.875 779.6563,149.875 Q780.3594,149.875 781,150.0313 Q781.6563,150.1875 782.2188,150.4844 L782.2188,153.2031 Q781.5938,152.625 781,152.3594 Q780.4063,152.0781 779.7813,152.0781 Q778.4375,152.0781 777.75,153.1563 Q777.0625,154.2188 777.0625,156.3125 Q777.0625,158.4063 777.75,159.4844 Q778.4375,160.5469 779.7813,160.5469 Q780.4063,160.5469 781,160.2813 Q781.5938,160 782.2188,159.4219 L782.2188,162.1406 Z "/><text fill="#000000" font-family="sans-serif" font-size="12" lengthAdjust="spacingAndGlyphs" textLength="28" x="799.75" y="160.6543">View</text><line style="stroke: #A80036; stroke-width: 1.5;" x1="721" x2="874" y1="172.5" y2="172.5"/><text fill="#000000" font-family="sans-serif" font-size="11" lengthAdjust="spacingAndGlyphs" textLength="55" x="726" y="186.7104">id : string</text><text fill="#000000" font-family="sans-serif" font-size="11" lengthAdjust="spacingAndGlyphs" textLength="77" x="726" y="199.5151">name : string</text><text fill="#000000" font-family="sans-serif" font-size="11" lengthAdjust="spacingAndGlyphs" textLength="143" x="726" y="212.3198">order : string "fractional"</text><text fill="#000000" font-family="sans-serif" font-size="11" lengthAdjust="spacingAndGlyphs" textLength="141" x="726" y="225.1245">linkCount : int "max 100"</text><!--MD5=[3fee75583bb7a64f68d843a3c9534ab3]
class Node--><rect fill="#FEFECE" filter="url(#f1bijyn8ckolc1)" height="227.2656" id="Node" style="stroke: #A80036; stroke-width: 1.5;" width="205" x="1565" y="171.5"/><ellipse cx="1646.75" cy="187.5" fill="#ADD1B2" rx="11" ry="11" style="stroke: #A80036; stroke-width: 1.0;"/><path d="M1649.7188,193.1406 Q1649.1406,193.4375 1648.5,193.5781 Q1647.8594,193.7344 1647.1563,193.7344 Q1644.6563,193.7344 1643.3281,192.0938 Q1642.0156,190.4375 1642.0156,187.3125 Q1642.0156,184.1875 1643.3281,182.5313 Q1644.6563,180.875 1647.1563,180.875 Q1647.8594,180.875 1648.5,181.0313 Q1649.1563,181.1875 1649.7188,181.4844 L1649.7188,184.2031 Q1649.0938,183.625 1648.5,183.3594 Q1647.9063,183.0781 1647.2813,183.0781 Q1645.9375,183.0781 1645.25,184.1563 Q1644.5625,185.2188 1644.5625,187.3125 Q1644.5625,189.4063 1645.25,190.4844 Q1645.9375,191.5469 1647.2813,191.5469 Q1647.9063,191.5469 1648.5,191.2813 Q1649.0938,191 1649.7188,190.4219 L1649.7188,193.1406 Z "/><text fill="#000000" font-family="sans-serif" font-size="12" lengthAdjust="spacingAndGlyphs" textLength="33" x="1667.25" y="191.6543">Node</text><line style="stroke: #A80036; stroke-width: 1.5;" x1="1566" x2="1769" y1="203.5" y2="203.5"/><text fill="#000000" font-family="sans-serif" font-size="11" lengthAdjust="spacingAndGlyphs" textLength="183" x="1571" y="217.7104">id : string "parentMapId.shortId"</text><text fill="#000000" font-family="sans-serif" font-size="11" lengthAdjust="spacingAndGlyphs" textLength="66" x="1571" y="230.5151">title : string</text><text fill="#000000" font-family="sans-serif" font-size="11" lengthAdjust="spacingAndGlyphs" textLength="132" x="1571" y="243.3198">body : string "info text"</text><text fill="#000000" font-family="sans-serif" font-size="11" lengthAdjust="spacingAndGlyphs" textLength="70" x="1571" y="256.1245">date : string</text><text fill="#000000" font-family="sans-serif" font-size="11" lengthAdjust="spacingAndGlyphs" textLength="57" x="1571" y="268.9292">size : Size</text><text fill="#000000" font-family="sans-serif" font-size="11" lengthAdjust="spacingAndGlyphs" textLength="193" x="1571" y="281.7339">positions : Map&lt;viewId, Position&gt;</text><text fill="#000000" font-family="sans-serif" font-size="11" lengthAdjust="spacingAndGlyphs" textLength="85" x="1571" y="311.3433">childCount : int</text><text fill="#000000" font-family="sans-serif" font-size="11" lengthAdjust="spacingAndGlyphs" textLength="92" x="1571" y="324.1479">hasArticle : bool</text><line style="stroke: #A80036; stroke-width: 1.0;" x1="1566" x2="1600" y1="294.7305" y2="294.7305"/><text fill="#000000" font-family="sans-serif" font-size="11" lengthAdjust="spacingAndGlyphs" textLength="135" x="1600" y="298.0386">derived, drive inference</text><line style="stroke: #A80036; stroke-width: 1.0;" x1="1735" x2="1769" y1="294.7305" y2="294.7305"/><text fill="#000000" font-family="sans-serif" font-size="11" lengthAdjust="spacingAndGlyphs" textLength="104" x="1571" y="353.7573">note : string [0..1]</text><text fill="#000000" font-family="sans-serif" font-size="11" lengthAdjust="spacingAndGlyphs" textLength="85" x="1571" y="366.562">urls : string [*]</text><text fill="#000000" font-family="sans-serif" font-size="11" lengthAdjust="spacingAndGlyphs" textLength="134" x="1571" y="379.3667">preview : Preview [0..1]</text><text fill="#000000" font-family="sans-serif" font-size="11" lengthAdjust="spacingAndGlyphs" textLength="145" x="1571" y="392.1714">coverImage : string [0..1]</text><line style="stroke: #A80036; stroke-width: 1.0;" x1="1566" x2="1602" y1="337.1445" y2="337.1445"/><text fill="#000000" font-family="sans-serif" font-size="11" lengthAdjust="spacingAndGlyphs" textLength="131" x="1602" y="340.4526">attachments, any node</text><line style="stroke: #A80036; stroke-width: 1.0;" x1="1733" x2="1769" y1="337.1445" y2="337.1445"/><!--MD5=[e09c41c2f9238e7adb85a94dde2227e7]
class Size--><rect fill="#FEFECE" filter="url(#f1bijyn8ckolc1)" height="65.6094" id="Size" style="stroke: #A80036; stroke-width: 1.5;" width="115" x="1925.5" y="121"/><ellipse cx="1967.05" cy="137" fill="#ADD1B2" rx="11" ry="11" style="stroke: #A80036; stroke-width: 1.0;"/><path d="M1970.0188,142.6406 Q1969.4406,142.9375 1968.8,143.0781 Q1968.1594,143.2344 1967.4563,143.2344 Q1964.9563,143.2344 1963.6281,141.5938 Q1962.3156,139.9375 1962.3156,136.8125 Q1962.3156,133.6875 1963.6281,132.0313 Q1964.9563,130.375 1967.4563,130.375 Q1968.1594,130.375 1968.8,130.5313 Q1969.4563,130.6875 1970.0188,130.9844 L1970.0188,133.7031 Q1969.3938,133.125 1968.8,132.8594 Q1968.2063,132.5781 1967.5813,132.5781 Q1966.2375,132.5781 1965.55,133.6563 Q1964.8625,134.7188 1964.8625,136.8125 Q1964.8625,138.9063 1965.55,139.9844 Q1966.2375,141.0469 1967.5813,141.0469 Q1968.2063,141.0469 1968.8,140.7813 Q1969.3938,140.5 1970.0188,139.9219 L1970.0188,142.6406 Z "/><text fill="#000000" font-family="sans-serif" font-size="12" lengthAdjust="spacingAndGlyphs" textLength="24" x="1986.95" y="141.1543">Size</text><line style="stroke: #A80036; stroke-width: 1.5;" x1="1926.5" x2="2039.5" y1="153" y2="153"/><text fill="#000000" font-family="sans-serif" font-size="11" lengthAdjust="spacingAndGlyphs" textLength="103" x="1931.5" y="167.2104">w : int "grid units"</text><text fill="#000000" font-family="sans-serif" font-size="11" lengthAdjust="spacingAndGlyphs" textLength="101" x="1931.5" y="180.0151">h : int "grid units"</text><!--MD5=[a64a835c3d62471a77f615251fdde58a]
class Position--><rect fill="#FEFECE" filter="url(#f1bijyn8ckolc1)" height="65.6094" id="Position" style="stroke: #A80036; stroke-width: 1.5;" width="123" x="1921.5" y="222"/><ellipse cx="1954.95" cy="238" fill="#ADD1B2" rx="11" ry="11" style="stroke: #A80036; stroke-width: 1.0;"/><path d="M1957.9188,243.6406 Q1957.3406,243.9375 1956.7,244.0781 Q1956.0594,244.2344 1955.3563,244.2344 Q1952.8563,244.2344 1951.5281,242.5938 Q1950.2156,240.9375 1950.2156,237.8125 Q1950.2156,234.6875 1951.5281,233.0313 Q1952.8563,231.375 1955.3563,231.375 Q1956.0594,231.375 1956.7,231.5313 Q1957.3563,231.6875 1957.9188,231.9844 L1957.9188,234.7031 Q1957.2938,234.125 1956.7,233.8594 Q1956.1063,233.5781 1955.4813,233.5781 Q1954.1375,233.5781 1953.45,234.6563 Q1952.7625,235.7188 1952.7625,237.8125 Q1952.7625,239.9063 1953.45,240.9844 Q1954.1375,242.0469 1955.4813,242.0469 Q1956.1063,242.0469 1956.7,241.7813 Q1957.2938,241.5 1957.9188,240.9219 L1957.9188,243.6406 Z "/><text fill="#000000" font-family="sans-serif" font-size="12" lengthAdjust="spacingAndGlyphs" textLength="50" x="1973.05" y="242.1543">Position</text><line style="stroke: #A80036; stroke-width: 1.5;" x1="1922.5" x2="2043.5" y1="254" y2="254"/><text fill="#000000" font-family="sans-serif" font-size="11" lengthAdjust="spacingAndGlyphs" textLength="111" x="1927.5" y="268.2104">x : float "grid units"</text><text fill="#000000" font-family="sans-serif" font-size="11" lengthAdjust="spacingAndGlyphs" textLength="111" x="1927.5" y="281.0151">y : float "grid units"</text><!--MD5=[d189332174d53557e6def82bbd003869]
class Link--><rect fill="#FEFECE" filter="url(#f1bijyn8ckolc1)" height="91.2188" id="Link" style="stroke: #A80036; stroke-width: 1.5;" width="170" x="1149.5" y="140.5"/><ellipse cx="1218.25" cy="156.5" fill="#ADD1B2" rx="11" ry="11" style="stroke: #A80036; stroke-width: 1.0;"/><path d="M1221.2188,162.1406 Q1220.6406,162.4375 1220,162.5781 Q1219.3594,162.7344 1218.6563,162.7344 Q1216.1563,162.7344 1214.8281,161.0938 Q1213.5156,159.4375 1213.5156,156.3125 Q1213.5156,153.1875 1214.8281,151.5313 Q1216.1563,149.875 1218.6563,149.875 Q1219.3594,149.875 1220,150.0313 Q1220.6563,150.1875 1221.2188,150.4844 L1221.2188,153.2031 Q1220.5938,152.625 1220,152.3594 Q1219.4063,152.0781 1218.7813,152.0781 Q1217.4375,152.0781 1216.75,153.1563 Q1216.0625,154.2188 1216.0625,156.3125 Q1216.0625,158.4063 1216.75,159.4844 Q1217.4375,160.5469 1218.7813,160.5469 Q1219.4063,160.5469 1220,160.2813 Q1220.5938,160 1221.2188,159.4219 L1221.2188,162.1406 Z "/><text fill="#000000" font-family="sans-serif" font-size="12" lengthAdjust="spacingAndGlyphs" textLength="24" x="1238.75" y="160.6543">Link</text><line style="stroke: #A80036; stroke-width: 1.5;" x1="1150.5" x2="1318.5" y1="172.5" y2="172.5"/><text fill="#000000" font-family="sans-serif" font-size="11" lengthAdjust="spacingAndGlyphs" textLength="157" x="1155.5" y="186.7104">nodeA : string "sorted pair"</text><text fill="#000000" font-family="sans-serif" font-size="11" lengthAdjust="spacingAndGlyphs" textLength="158" x="1155.5" y="199.5151">nodeB : string "sorted pair"</text><text fill="#000000" font-family="sans-serif" font-size="11" lengthAdjust="spacingAndGlyphs" textLength="85" x="1155.5" y="212.3198">type : LinkType</text><text fill="#000000" font-family="sans-serif" font-size="11" lengthAdjust="spacingAndGlyphs" textLength="106" x="1155.5" y="225.1245">label : string [0..1]</text><!--MD5=[161c3bb403169157d9ea11ed46eaa789]
class Gallery--><rect fill="#FEFECE" filter="url(#f1bijyn8ckolc1)" height="52.8047" id="Gallery" style="stroke: #A80036; stroke-width: 1.5;" width="142" x="1912" y="323.5"/><ellipse cx="1957.75" cy="339.5" fill="#ADD1B2" rx="11" ry="11" style="stroke: #A80036; stroke-width: 1.0;"/><path d="M1960.7188,345.1406 Q1960.1406,345.4375 1959.5,345.5781 Q1958.8594,345.7344 1958.1563,345.7344 Q1955.6563,345.7344 1954.3281,344.0938 Q1953.0156,342.4375 1953.0156,339.3125 Q1953.0156,336.1875 1954.3281,334.5313 Q1955.6563,332.875 1958.1563,332.875 Q1958.8594,332.875 1959.5,333.0313 Q1960.1563,333.1875 1960.7188,333.4844 L1960.7188,336.2031 Q1960.0938,335.625 1959.5,335.3594 Q1958.9063,335.0781 1958.2813,335.0781 Q1956.9375,335.0781 1956.25,336.1563 Q1955.5625,337.2188 1955.5625,339.3125 Q1955.5625,341.4063 1956.25,342.4844 Q1956.9375,343.5469 1958.2813,343.5469 Q1958.9063,343.5469 1959.5,343.2813 Q1960.0938,343 1960.7188,342.4219 L1960.7188,345.1406 Z "/><text fill="#000000" font-family="sans-serif" font-size="12" lengthAdjust="spacingAndGlyphs" textLength="42" x="1978.25" y="343.6543">Gallery</text><line style="stroke: #A80036; stroke-width: 1.5;" x1="1913" x2="2053" y1="355.5" y2="355.5"/><text fill="#000000" font-family="sans-serif" font-size="11" lengthAdjust="spacingAndGlyphs" textLength="130" x="1918" y="369.7104">images : Image [1..10]</text><!--MD5=[d22815ff63be9cac9a63f8d1ea27d033]
class Article--><rect fill="#FEFECE" filter="url(#f1bijyn8ckolc1)" height="52.8047" id="Article" style="stroke: #A80036; stroke-width: 1.5;" width="116" x="1925" y="411.5"/><ellipse cx="1960.25" cy="427.5" fill="#ADD1B2" rx="11" ry="11" style="stroke: #A80036; stroke-width: 1.0;"/><path d="M1963.2188,433.1406 Q1962.6406,433.4375 1962,433.5781 Q1961.3594,433.7344 1960.6563,433.7344 Q1958.1563,433.7344 1956.8281,432.0938 Q1955.5156,430.4375 1955.5156,427.3125 Q1955.5156,424.1875 1956.8281,422.5313 Q1958.1563,420.875 1960.6563,420.875 Q1961.3594,420.875 1962,421.0313 Q1962.6563,421.1875 1963.2188,421.4844 L1963.2188,424.2031 Q1962.5938,423.625 1962,423.3594 Q1961.4063,423.0781 1960.7813,423.0781 Q1959.4375,423.0781 1958.75,424.1563 Q1958.0625,425.2188 1958.0625,427.3125 Q1958.0625,429.4063 1958.75,430.4844 Q1959.4375,431.5469 1960.7813,431.5469 Q1961.4063,431.5469 1962,431.2813 Q1962.5938,431 1963.2188,430.4219 L1963.2188,433.1406 Z "/><text fill="#000000" font-family="sans-serif" font-size="12" lengthAdjust="spacingAndGlyphs" textLength="39" x="1978.75" y="431.6543">Article</text><line style="stroke: #A80036; stroke-width: 1.5;" x1="1926" x2="2040" y1="443.5" y2="443.5"/><text fill="#000000" font-family="sans-serif" font-size="11" lengthAdjust="spacingAndGlyphs" textLength="104" x="1931" y="457.7104">markdown : string</text><!--MD5=[964f074a2dd77d134c21b891bb53e381]
class Image--><rect fill="#FEFECE" filter="url(#f1bijyn8ckolc1)" height="65.6094" id="Image" style="stroke: #A80036; stroke-width: 1.5;" width="132" x="2183" y="313"/><ellipse cx="2225.9" cy="329" fill="#ADD1B2" rx="11" ry="11" style="stroke: #A80036; stroke-width: 1.0;"/><path d="M2228.8688,334.6406 Q2228.2906,334.9375 2227.65,335.0781 Q2227.0094,335.2344 2226.3063,335.2344 Q2223.8063,335.2344 2222.4781,333.5938 Q2221.1656,331.9375 2221.1656,328.8125 Q2221.1656,325.6875 2222.4781,324.0313 Q2223.8063,322.375 2226.3063,322.375 Q2227.0094,322.375 2227.65,322.5313 Q2228.3063,322.6875 2228.8688,322.9844 L2228.8688,325.7031 Q2228.2438,325.125 2227.65,324.8594 Q2227.0563,324.5781 2226.4313,324.5781 Q2225.0875,324.5781 2224.4,325.6563 Q2223.7125,326.7188 2223.7125,328.8125 Q2223.7125,330.9063 2224.4,331.9844 Q2225.0875,333.0469 2226.4313,333.0469 Q2227.0563,333.0469 2227.65,332.7813 Q2228.2438,332.5 2228.8688,331.9219 L2228.8688,334.6406 Z "/><text fill="#000000" font-family="sans-serif" font-size="12" lengthAdjust="spacingAndGlyphs" textLength="38" x="2246.1" y="333.1543">Image</text><line style="stroke: #A80036; stroke-width: 1.5;" x1="2184" x2="2314" y1="345" y2="345"/><text fill="#000000" font-family="sans-serif" font-size="11" lengthAdjust="spacingAndGlyphs" textLength="79" x="2189" y="359.2104">s3Key : string</text><text fill="#000000" font-family="sans-serif" font-size="11" lengthAdjust="spacingAndGlyphs" textLength="120" x="2189" y="372.0151">caption : string [0..1]</text><!--MD5=[90a68fc9c46aca5be8b3299127d346e3]
class Preview--><rect fill="#FEFECE" filter="url(#f1bijyn8ckolc1)" height="78.4141" id="Preview" style="stroke: #A80036; stroke-width: 1.5;" width="129" x="1918.5" y="8"/><ellipse cx="1956" cy="24" fill="#ADD1B2" rx="11" ry="11" style="stroke: #A80036; stroke-width: 1.0;"/><path d="M1958.9688,29.6406 Q1958.3906,29.9375 1957.75,30.0781 Q1957.1094,30.2344 1956.4063,30.2344 Q1953.9063,30.2344 1952.5781,28.5938 Q1951.2656,26.9375 1951.2656,23.8125 Q1951.2656,20.6875 1952.5781,19.0313 Q1953.9063,17.375 1956.4063,17.375 Q1957.1094,17.375 1957.75,17.5313 Q1958.4063,17.6875 1958.9688,17.9844 L1958.9688,20.7031 Q1958.3438,20.125 1957.75,19.8594 Q1957.1563,19.5781 1956.5313,19.5781 Q1955.1875,19.5781 1954.5,20.6563 Q1953.8125,21.7188 1953.8125,23.8125 Q1953.8125,25.9063 1954.5,26.9844 Q1955.1875,28.0469 1956.5313,28.0469 Q1957.1563,28.0469 1957.75,27.7813 Q1958.3438,27.5 1958.9688,26.9219 L1958.9688,29.6406 Z "/><text fill="#000000" font-family="sans-serif" font-size="12" lengthAdjust="spacingAndGlyphs" textLength="47" x="1975" y="28.1543">Preview</text><line style="stroke: #A80036; stroke-width: 1.5;" x1="1919.5" x2="2046.5" y1="40" y2="40"/><text fill="#000000" font-family="sans-serif" font-size="11" lengthAdjust="spacingAndGlyphs" textLength="60" x="1924.5" y="54.2104">url : string</text><text fill="#000000" font-family="sans-serif" font-size="11" lengthAdjust="spacingAndGlyphs" textLength="117" x="1924.5" y="67.0151">thumbnailUrl : string</text><text fill="#000000" font-family="sans-serif" font-size="11" lengthAdjust="spacingAndGlyphs" textLength="66" x="1924.5" y="79.8198">title : string</text><path d="M2115,414.5 L2115,485.0313 L2383,485.0313 L2383,424.5 L2373,414.5 L2115,414.5 " fill="#FBFB77" filter="url(#f1bijyn8ckolc1)" style="stroke: #A80036; stroke-width: 1.0;"/><path d="M2373,414.5 L2373,424.5 L2383,424.5 L2373,414.5 " fill="#FBFB77" style="stroke: #A80036; stroke-width: 1.0;"/><text fill="#000000" font-family="sans-serif" font-size="13" lengthAdjust="spacingAndGlyphs" textLength="208" x="2121" y="431.5669">Primary content: at most ONE of</text><text fill="#000000" font-family="sans-serif" font-size="13" lengthAdjust="spacingAndGlyphs" textLength="243" x="2121" y="446.6997">Gallery / Article / nested Map (CON-8).</text><text fill="#000000" font-family="sans-serif" font-size="13" lengthAdjust="spacingAndGlyphs" textLength="203" x="2121" y="461.8325">No stored kind: the UI infers the</text><text fill="#000000" font-family="sans-serif" font-size="13" lengthAdjust="spacingAndGlyphs" textLength="247" x="2121" y="476.9653">visualization from what exists (CON-7).</text><path d="M1105,50.5 L1105,105.8984 A0,0 0 0 0 1105,105.8984 L1118.39,105.8984 L875.27,166.94 L1126.39,105.8984 L1364,105.8984 A0,0 0 0 0 1364,105.8984 L1364,60.5 L1354,50.5 L1105,50.5 A0,0 0 0 0 1105,50.5 " fill="#FBFB77" filter="url(#f1bijyn8ckolc1)" style="stroke: #A80036; stroke-width: 1.0;"/><path d="M1354,50.5 L1354,60.5 L1364,60.5 L1354,50.5 " fill="#FBFB77" style="stroke: #A80036; stroke-width: 1.0;"/><text fill="#000000" font-family="sans-serif" font-size="13" lengthAdjust="spacingAndGlyphs" textLength="220" x="1111" y="67.5669">A View is grid when it has no Links,</text><text fill="#000000" font-family="sans-serif" font-size="13" lengthAdjust="spacingAndGlyphs" textLength="215" x="1111" y="82.6997">freeform when it has at least one.</text><text fill="#000000" font-family="sans-serif" font-size="13" lengthAdjust="spacingAndGlyphs" textLength="238" x="1111" y="97.8325">Derived at render time, never stored.</text><!--MD5=[8a5d21becf3524c4063199c5a783a78f]
link User to Membership--><path d="M134.06,261 C152.05,261 171.66,261 189.69,261 " fill="none" id="User-&gt;Membership" style="stroke: #A80036; stroke-width: 1.0;"/><polygon fill="#A80036" points="194.73,261,185.73,257,189.73,261,185.73,265,194.73,261" style="stroke: #A80036; stroke-width: 1.0;"/><text fill="#000000" font-family="sans-serif" font-size="13" lengthAdjust="spacingAndGlyphs" textLength="8" x="141.9294" y="273.9643">1</text><text fill="#000000" font-family="sans-serif" font-size="13" lengthAdjust="spacingAndGlyphs" textLength="7" x="180.019" y="274.0129">*</text><!--MD5=[4fbe6e63da5c8dedc1d6b31a4e6444c1]
link Membership to Map--><path d="M314.35,272.43 C357.35,280.78 416.64,292.29 466.71,302.01 " fill="none" id="Membership-&gt;Map" style="stroke: #A80036; stroke-width: 1.0;"/><polygon fill="#A80036" points="471.84,303.01,463.7579,297.3815,466.9301,302.0652,462.2463,305.2374,471.84,303.01" style="stroke: #A80036; stroke-width: 1.0;"/><text fill="#000000" font-family="sans-serif" font-size="13" lengthAdjust="spacingAndGlyphs" textLength="96" x="345" y="274.0669">root maps only</text><text fill="#000000" font-family="sans-serif" font-size="13" lengthAdjust="spacingAndGlyphs" textLength="7" x="322.0708" y="286.8359">*</text><text fill="#000000" font-family="sans-serif" font-size="13" lengthAdjust="spacingAndGlyphs" textLength="8" x="456.0577" y="314.2375">1</text><!--MD5=[28623a83fc5f0b9cb9f773c31070f0f3]
reverse link Map to View--><path d="M655.35,268.85 C676.57,256.39 699.05,243.2 719.68,231.09 " fill="none" id="Map&lt;-View" style="stroke: #A80036; stroke-width: 1.0;"/><polygon fill="#A80036" points="644.05,275.48,651.249,275.8977,654.4034,269.4131,647.2044,268.9954,644.05,275.48" style="stroke: #A80036; stroke-width: 1.0;"/><text fill="#000000" font-family="sans-serif" font-size="13" lengthAdjust="spacingAndGlyphs" textLength="8" x="647.4655" y="264.4216">1</text><text fill="#000000" font-family="sans-serif" font-size="13" lengthAdjust="spacingAndGlyphs" textLength="24" x="687.9611" y="247.6727">1..3</text><!--MD5=[81e42f49a0df64423dba8061714129dd]
reverse link Map to Node--><path d="M672.59,317.53 C884.32,310.6 1356.76,295.14 1564.81,288.33 " fill="none" id="Map&lt;-Node" style="stroke: #A80036; stroke-width: 1.0;"/><polygon fill="#A80036" points="659.34,317.96,665.4687,321.7599,671.3335,317.5642,665.2048,313.7643,659.34,317.96" style="stroke: #A80036; stroke-width: 1.0;"/><text fill="#000000" font-family="sans-serif" font-size="13" lengthAdjust="spacingAndGlyphs" textLength="8" x="667.1366" y="330.3789">1</text><text fill="#000000" font-family="sans-serif" font-size="13" lengthAdjust="spacingAndGlyphs" textLength="32" x="1524.8355" y="301.1201">0..50</text><!--MD5=[62db9e3e8b76efdd03ca801f2c6986ee]
reverse link Node to Map--><path d="M1551.72,299.3 C1546.07,299.9 1540.47,300.47 1535,301 C1255.92,327.97 1185.33,339.38 905,334 C821.8,332.4 727.16,328.6 659.14,325.52 " fill="none" id="Node&lt;-Map" style="stroke: #A80036; stroke-width: 1.0;"/><polygon fill="#FFFFFF" points="1564.97,297.86,1558.5706,294.5362,1553.0412,299.1649,1559.4406,302.4887,1564.97,297.86" style="stroke: #A80036; stroke-width: 1.0;"/><text fill="#000000" font-family="sans-serif" font-size="13" lengthAdjust="spacingAndGlyphs" textLength="168" x="906" y="330.0669">nested map (id = node id)</text><text fill="#000000" font-family="sans-serif" font-size="13" lengthAdjust="spacingAndGlyphs" textLength="8" x="1549.1467" y="311.4172">1</text><text fill="#000000" font-family="sans-serif" font-size="13" lengthAdjust="spacingAndGlyphs" textLength="24" x="666.8979" y="338.4665">0..1</text><!--MD5=[b6408a8289f81d21018da2c2e792b922]
reverse link View to Link--><path d="M888.7,186 C965.33,186 1074.48,186 1149.33,186 " fill="none" id="View&lt;-Link" style="stroke: #A80036; stroke-width: 1.0;"/><polygon fill="#A80036" points="875.27,186,881.27,190,887.27,186,881.27,182,875.27,186" style="stroke: #A80036; stroke-width: 1.0;"/><text fill="#000000" font-family="sans-serif" font-size="13" lengthAdjust="spacingAndGlyphs" textLength="8" x="883.0637" y="198.7776">1</text><text fill="#000000" font-family="sans-serif" font-size="13" lengthAdjust="spacingAndGlyphs" textLength="40" x="1101.6066" y="198.6145">0..100</text><!--MD5=[e6659f13df866cee35167b26fb07707e]
link Link to Node--><path d="M1319.62,205.32 C1388.17,221.07 1485.38,243.4 1559.46,260.41 " fill="none" id="Link-&gt;Node" style="stroke: #A80036; stroke-width: 1.0;"/><polygon fill="#A80036" points="1564.75,261.63,1556.8648,255.7289,1559.8752,260.5182,1555.0859,263.5286,1564.75,261.63" style="stroke: #A80036; stroke-width: 1.0;"/><text fill="#000000" font-family="sans-serif" font-size="13" lengthAdjust="spacingAndGlyphs" textLength="139" x="1395" y="219.0669">endpoints, undirected</text><text fill="#000000" font-family="sans-serif" font-size="13" lengthAdjust="spacingAndGlyphs" textLength="7" x="1327.5127" y="219.7717">*</text><text fill="#000000" font-family="sans-serif" font-size="13" lengthAdjust="spacingAndGlyphs" textLength="8" x="1548.9105" y="272.5266">2</text><!--MD5=[bcc6c00cff00d3d9682ced6afc84eb52]
reverse link Node to Size--><path d="M1782.51,237.36 C1831.13,217.04 1885.7,194.24 1925.45,177.63 " fill="none" id="Node&lt;-Size" style="stroke: #A80036; stroke-width: 1.0;"/><polygon fill="#A80036" points="1770.28,242.47,1777.3575,243.8516,1781.355,237.8499,1774.2775,236.4683,1770.28,242.47" style="stroke: #A80036; stroke-width: 1.0;"/><text fill="#000000" font-family="sans-serif" font-size="13" lengthAdjust="spacingAndGlyphs" textLength="8" x="1778.1217" y="251.9595">1</text><text fill="#000000" font-family="sans-serif" font-size="13" lengthAdjust="spacingAndGlyphs" textLength="8" x="1909.5639" y="193.719">1</text><!--MD5=[30b14677696c8ad794affc46645d1699]
reverse link Node to Position--><path d="M1783.32,274.01 C1830.09,269.54 1882.23,264.55 1921.36,260.8 " fill="none" id="Node&lt;-Position" style="stroke: #A80036; stroke-width: 1.0;"/><polygon fill="#A80036" points="1770.28,275.26,1776.6349,278.6682,1782.2251,274.113,1775.8702,270.7048,1770.28,275.26" style="stroke: #A80036; stroke-width: 1.0;"/><text fill="#000000" font-family="sans-serif" font-size="13" lengthAdjust="spacingAndGlyphs" textLength="80" x="1801" y="260.0669">one per view</text><text fill="#000000" font-family="sans-serif" font-size="13" lengthAdjust="spacingAndGlyphs" textLength="8" x="1778.1217" y="287.1575">1</text><text fill="#000000" font-family="sans-serif" font-size="13" lengthAdjust="spacingAndGlyphs" textLength="7" x="1906.4211" y="274.5197">*</text><!--MD5=[3225675391abd32241cb666dce2902de]
reverse link Node to Gallery--><path d="M1783.21,308.78 C1826.34,317.73 1874.05,327.62 1911.92,335.47 " fill="none" id="Node&lt;-Gallery" style="stroke: #A80036; stroke-width: 1.0;"/><polygon fill="#A80036" points="1770.28,306.1,1775.3415,311.2362,1782.0294,308.5396,1776.9679,303.4033,1770.28,306.1" style="stroke: #A80036; stroke-width: 1.0;"/><text fill="#000000" font-family="sans-serif" font-size="13" lengthAdjust="spacingAndGlyphs" textLength="8" x="1778.1217" y="320.2623">1</text><text fill="#000000" font-family="sans-serif" font-size="13" lengthAdjust="spacingAndGlyphs" textLength="24" x="1880.0014" y="346.8825">0..1</text><!--MD5=[be58c59a115faeb8c5ad8bb77e32fd30]
reverse link Node to Article--><path d="M1782.09,340.44 C1831.74,364.67 1887.64,391.95 1927.68,411.49 " fill="none" id="Node&lt;-Article" style="stroke: #A80036; stroke-width: 1.0;"/><polygon fill="#A80036" points="1770.28,334.67,1773.9191,340.8955,1781.0653,339.9308,1777.4263,333.7053,1770.28,334.67" style="stroke: #A80036; stroke-width: 1.0;"/><text fill="#000000" font-family="sans-serif" font-size="13" lengthAdjust="spacingAndGlyphs" textLength="8" x="1778.1217" y="350.9304">1</text><text fill="#000000" font-family="sans-serif" font-size="13" lengthAdjust="spacingAndGlyphs" textLength="24" x="1892.9509" y="403.1627">0..1</text><!--MD5=[872aa368d49d7f2158e811cb9a3f9de1]
reverse link Gallery to Image--><path d="M2067.46,348.74 C2104.65,348.17 2147.82,347.52 2182.61,346.99 " fill="none" id="Gallery&lt;-Image" style="stroke: #A80036; stroke-width: 1.0;"/><polygon fill="#A80036" points="2054.05,348.94,2060.1108,352.8472,2066.0486,348.7554,2059.9878,344.8482,2054.05,348.94" style="stroke: #A80036; stroke-width: 1.0;"/><!--MD5=[be6db05170f60301f8d579058c3b3079]
reverse link Node to Preview--><path d="M1780.48,199.83 C1787.09,194.81 1793.63,189.84 1800,185 C1843.9,151.67 1893.78,113.85 1930.21,86.24 " fill="none" id="Node&lt;-Preview" style="stroke: #A80036; stroke-width: 1.0;"/><polygon fill="#A80036" points="1770.07,207.73,1777.267,207.2794,1779.6191,200.4626,1772.4221,200.9133,1770.07,207.73" style="stroke: #A80036; stroke-width: 1.0;"/><!--MD5=[42e0be315da503b2cfb6bb6d87437fb5]
link Map to XOR--><path d="M592.74,366.69 C629.96,424.89 703.97,518 796.5,518 C796.5,518 796.5,518 1984,518 C2042.69,518 2106.46,502.05 2156.62,485.59 " fill="none" id="Map-XOR" style="stroke: #A80036; stroke-width: 1.0; stroke-dasharray: 7.0,7.0;"/><!--MD5=[47b396ea18050750a65164963947aede]
link Gallery to XOR--><path d="M2054.05,376.54 C2084.76,388.17 2121.25,401.99 2154.24,414.49 " fill="none" id="Gallery-XOR" style="stroke: #A80036; stroke-width: 1.0; stroke-dasharray: 7.0,7.0;"/><!--MD5=[250b857dcd7047a527d0381a79f1c3a6]
link Article to XOR--><path d="M2041.28,440.6 C2063.12,441.6 2089.03,442.77 2114.98,443.95 " fill="none" id="Article-XOR" style="stroke: #A80036; stroke-width: 1.0; stroke-dasharray: 7.0,7.0;"/><!--MD5=[ba711d475118450a6036d3c25e59cacf]
link Membership to Role--><path d="M314.35,249.57 C378.34,237.15 478.42,217.71 530.48,207.61 " fill="none" id="Membership-&gt;Role" style="stroke: #A80036; stroke-width: 1.0; stroke-dasharray: 7.0,7.0;"/><polygon fill="#A80036" points="535.67,206.6,526.0713,204.3944,530.7622,207.5559,527.6007,212.2468,535.67,206.6" style="stroke: #A80036; stroke-width: 1.0;"/><!--MD5=[70b619d799a37db22293a911a9ac9536]
link Link to LinkType--><path d="M1319.62,168.63 C1409.22,150.13 1547.8,121.51 1619.68,106.67 " fill="none" id="Link-&gt;LinkType" style="stroke: #A80036; stroke-width: 1.0; stroke-dasharray: 7.0,7.0;"/><polygon fill="#A80036" points="1624.74,105.62,1615.116,103.5273,1619.8438,106.6335,1616.7376,111.3613,1624.74,105.62" style="stroke: #A80036; stroke-width: 1.0;"/><!--MD5=[d1a79d1a300cba7d67cfd04ff2b6c727]
@startuml data_model
hide empty members
skinparam classAttributeIconSize 0
left to right direction

enum Role {
  owner
  editor
  viewer
}
enum LinkType {
  theme
  timeline
  soft
}

class User {
  sub : string
  createdAt : datetime
}
class Membership {
  role : Role
  joinedAt : datetime
}
class Map {
  id : string
  name : string [0..1] "root only"
  nodeCount : int "max 50"
  viewCount : int "1..3"
}
class View {
  id : string
  name : string
  order : string "fractional"
  linkCount : int "max 100"
}
class Node {
  id : string "parentMapId.shortId"
  title : string
  body : string "info text"
  date : string
  size : Size
  positions : Map<viewId, Position>
  - -derived, drive inference- -
  childCount : int
  hasArticle : bool
  - -attachments, any node- -
  note : string [0..1]
  urls : string [*]
  preview : Preview [0..1]
  coverImage : string [0..1]
}
class Size {
  w : int "grid units"
  h : int "grid units"
}
class Position {
  x : float "grid units"
  y : float "grid units"
}
class Link {
  nodeA : string "sorted pair"
  nodeB : string "sorted pair"
  type : LinkType
  label : string [0..1]
}
class Gallery {
  images : Image [1..10]
}
class Article {
  markdown : string
}
class Image {
  s3Key : string
  caption : string [0..1]
}
class Preview {
  url : string
  thumbnailUrl : string
  title : string
}

note "Primary content: at most ONE of\nGallery / Article / nested Map (CON-8).\nNo stored kind: the UI infers the\nvisualization from what exists (CON-7)." as XOR
note "A View is grid when it has no Links,\nfreeform when it has at least one.\nDerived at render time, never stored." as LAYOUT

User "1" - -> "*" Membership
Membership "*" - -> "1" Map : root maps only
Map "1" *- - "1..3" View
Map "1" *- - "0..50" Node
View "1" *- - "0..100" Link
Link "*" - -> "2" Node : endpoints, undirected
Node "1" *- - "1" Size
Node "1" *- - "*" Position : one per view
Node "1" o- - "0..1" Map : nested map (id = node id)
Node "1" *- - "0..1" Gallery
Node "1" *- - "0..1" Article
Gallery *- - Image
Node *- - Preview
Map .. XOR
Gallery .. XOR
Article .. XOR
View .. LAYOUT
Membership ..> Role
Link ..> LinkType
@enduml

PlantUML version 1.2020.02(Sun Mar 01 11:22:07 CET 2020)
(GPL source distribution)
Java Runtime: OpenJDK Runtime Environment
JVM: OpenJDK 64-Bit Server VM
Java Version: 21.0.12+8-1-24.04-Ubuntu
Operating System: Linux
Default Encoding: UTF-8
Language: en
Country: null
--></g></svg>