<?xml version="1.0" encoding="UTF-8" standalone="no"?><svg xmlns="http://www.w3.org/2000/svg" xmlns:xlink="http://www.w3.org/1999/xlink" contentScriptType="application/ecmascript" contentStyleType="text/css" height="750px" preserveAspectRatio="none" style="width:2018px;height:750px;" version="1.1" viewBox="0 0 2018 750" width="2018px" zoomAndPan="magnify"><defs><filter height="300%" id="f111fu4pcjgcbi" width="300%" x="-1" y="-1"><feGaussianBlur result="blurOut" stdDeviation="2.0"/><feColorMatrix in="blurOut" result="blurOut2" type="matrix" values="0 0 0 0 0 0 0 0 0 0 0 0 0 0 0 0 0 0 .4 0"/><feOffset dx="4.0" dy="4.0" in="blurOut2" result="blurOut3"/><feBlend in="SourceGraphic" in2="blurOut3" mode="normal"/></filter></defs><g><!--MD5=[cf6b84bde90785a2566a25da8304cee7]
cluster PK = USER#{sub}   (read: list my Maps, authorize a write)--><rect fill="#FFFFFF" filter="url(#f111fu4pcjgcbi)" height="206" style="stroke: #000000; stroke-width: 1.5;" width="476" x="22" y="24"/><text fill="#000000" font-family="sans-serif" font-size="14" font-weight="bold" lengthAdjust="spacingAndGlyphs" textLength="460" x="30" y="38.9951">PK = USER#{sub}   (read: list my Maps, authorize a write)</text><!--MD5=[e61a7a424b60f05e7d4d6c2a2e7949d6]
cluster PK = MAP#{mapId}   (ONE Query = open a Map: tiles only)--><rect fill="#FFFFFF" filter="url(#f111fu4pcjgcbi)" height="594" style="stroke: #000000; stroke-width: 1.5;" width="479" x="707" y="145"/><text fill="#000000" font-family="sans-serif" font-size="14" font-weight="bold" lengthAdjust="spacingAndGlyphs" textLength="463" x="715" y="159.9951">PK = MAP#{mapId}   (ONE Query = open a Map: tiles only)</text><!--MD5=[937da9bdb2804870aafca72c2de5468d]
cluster PK = CONTENT#{nodeId}   (ONE Query = open a node)--><rect fill="#FFFFFF" filter="url(#f111fu4pcjgcbi)" height="231" style="stroke: #000000; stroke-width: 1.5;" width="452" x="1453" y="398"/><text fill="#000000" font-family="sans-serif" font-size="14" font-weight="bold" lengthAdjust="spacingAndGlyphs" textLength="436" x="1461" y="412.9951">PK = CONTENT#{nodeId}   (ONE Query = open a node)</text><!--MD5=[5bec3b37b3a906cb4db38a6e3cba8e4f]
cluster GSI1 (sparse): GSI1PK = MAP#PUBLIC   (gallery: newest-published first, no Scan)--><rect fill="#FFFFFF" filter="url(#f111fu4pcjgcbi)" height="125" style="stroke: #000000; stroke-width: 1.5;" width="657" x="1350" y="171"/><text fill="#000000" font-family="sans-serif" font-size="14" font-weight="bold" lengthAdjust="spacingAndGlyphs" textLength="641" x="1358" y="185.9951">GSI1 (sparse): GSI1PK = MAP#PUBLIC   (gallery: newest-published first, no Scan)</text><!--MD5=[85260ff3f3dd4c3c9a092ba3ba7efa85]
cluster PK = MAP#ALL   (constant key: ops list of all Maps, no Scan)--><rect fill="#FFFFFF" filter="url(#f111fu4pcjgcbi)" height="129" style="stroke: #000000; stroke-width: 1.5;" width="493" x="14" y="254"/><text fill="#000000" font-family="sans-serif" font-size="14" font-weight="bold" lengthAdjust="spacingAndGlyphs" textLength="477" x="22" y="268.9951">PK = MAP#ALL   (constant key: ops list of all Maps, no Scan)</text><!--MD5=[ffdf888bef4f4b5cb1472b162a5fec51]
class U1--><rect fill="#FEFECE" filter="url(#f111fu4pcjgcbi)" height="52.8047" id="U1" style="stroke: #A80036; stroke-width: 1.5;" width="114" x="203" y="59.5"/><ellipse cx="218" cy="75.5" fill="#ADD1B2" rx="11" ry="11" style="stroke: #A80036; stroke-width: 1.0;"/><path d="M220.9688,81.1406 Q220.3906,81.4375 219.75,81.5781 Q219.1094,81.7344 218.4063,81.7344 Q215.9063,81.7344 214.5781,80.0938 Q213.2656,78.4375 213.2656,75.3125 Q213.2656,72.1875 214.5781,70.5313 Q215.9063,68.875 218.4063,68.875 Q219.1094,68.875 219.75,69.0313 Q220.4063,69.1875 220.9688,69.4844 L220.9688,72.2031 Q220.3438,71.625 219.75,71.3594 Q219.1563,71.0781 218.5313,71.0781 Q217.1875,71.0781 216.5,72.1563 Q215.8125,73.2188 215.8125,75.3125 Q215.8125,77.4063 216.5,78.4844 Q217.1875,79.5469 218.5313,79.5469 Q219.1563,79.5469 219.75,79.2813 Q220.3438,79 220.9688,78.4219 L220.9688,81.1406 Z "/><text fill="#000000" font-family="sans-serif" font-size="12" lengthAdjust="spacingAndGlyphs" textLength="82" x="232" y="79.6543">SK = PROFILE</text><line style="stroke: #A80036; stroke-width: 1.5;" x1="204" x2="316" y1="91.5" y2="91.5"/><text fill="#000000" font-family="sans-serif" font-size="11" lengthAdjust="spacingAndGlyphs" textLength="54" x="209" y="105.7104">createdAt</text><!--MD5=[ce9e6ff32917459eedc416dbc410b0e5]
class U2--><rect fill="#FEFECE" filter="url(#f111fu4pcjgcbi)" height="65.6094" id="U2" style="stroke: #A80036; stroke-width: 1.5;" width="206" x="157" y="148"/><ellipse cx="172" cy="164" fill="#ADD1B2" rx="11" ry="11" style="stroke: #A80036; stroke-width: 1.0;"/><path d="M174.9688,169.6406 Q174.3906,169.9375 173.75,170.0781 Q173.1094,170.2344 172.4063,170.2344 Q169.9063,170.2344 168.5781,168.5938 Q167.2656,166.9375 167.2656,163.8125 Q167.2656,160.6875 168.5781,159.0313 Q169.9063,157.375 172.4063,157.375 Q173.1094,157.375 173.75,157.5313 Q174.4063,157.6875 174.9688,157.9844 L174.9688,160.7031 Q174.3438,160.125 173.75,159.8594 Q173.1563,159.5781 172.5313,159.5781 Q171.1875,159.5781 170.5,160.6563 Q169.8125,161.7188 169.8125,163.8125 Q169.8125,165.9063 170.5,166.9844 Q171.1875,168.0469 172.5313,168.0469 Q173.1563,168.0469 173.75,167.7813 Q174.3438,167.5 174.9688,166.9219 L174.9688,169.6406 Z "/><text fill="#000000" font-family="sans-serif" font-size="12" lengthAdjust="spacingAndGlyphs" textLength="174" x="186" y="168.1543">SK = MEMBER#{rootMapId}</text><line style="stroke: #A80036; stroke-width: 1.5;" x1="158" x2="362" y1="180" y2="180"/><text fill="#000000" font-family="sans-serif" font-size="11" lengthAdjust="spacingAndGlyphs" textLength="22" x="163" y="194.2104">role</text><text fill="#000000" font-family="sans-serif" font-size="11" lengthAdjust="spacingAndGlyphs" textLength="45" x="163" y="207.0151">joinedAt</text><!--MD5=[ce125018d4b04700088b17729a84e739]
class M1--><rect fill="#FEFECE" filter="url(#f111fu4pcjgcbi)" height="124.8281" id="M1" style="stroke: #A80036; stroke-width: 1.5;" width="208" x="842.5" y="180.5"/><ellipse cx="909.25" cy="196.5" fill="#ADD1B2" rx="11" ry="11" style="stroke: #A80036; stroke-width: 1.0;"/><path d="M912.2188,202.1406 Q911.6406,202.4375 911,202.5781 Q910.3594,202.7344 909.6563,202.7344 Q907.1563,202.7344 905.8281,201.0938 Q904.5156,199.4375 904.5156,196.3125 Q904.5156,193.1875 905.8281,191.5313 Q907.1563,189.875 909.6563,189.875 Q910.3594,189.875 911,190.0313 Q911.6563,190.1875 912.2188,190.4844 L912.2188,193.2031 Q911.5938,192.625 911,192.3594 Q910.4063,192.0781 909.7813,192.0781 Q908.4375,192.0781 907.75,193.1563 Q907.0625,194.2188 907.0625,196.3125 Q907.0625,198.4063 907.75,199.4844 Q908.4375,200.5469 909.7813,200.5469 Q910.4063,200.5469 911,200.2813 Q911.5938,200 912.2188,199.4219 L912.2188,202.1406 Z "/><text fill="#000000" font-family="sans-serif" font-size="12" lengthAdjust="spacingAndGlyphs" textLength="66" x="929.75" y="200.6543">SK = META</text><line style="stroke: #A80036; stroke-width: 1.5;" x1="843.5" x2="1049.5" y1="212.5" y2="212.5"/><text fill="#000000" font-family="sans-serif" font-size="11" lengthAdjust="spacingAndGlyphs" textLength="61" x="848.5" y="226.7104">nodeCount</text><text fill="#000000" font-family="sans-serif" font-size="11" lengthAdjust="spacingAndGlyphs" textLength="58" x="848.5" y="239.5151">viewCount</text><line style="stroke: #A80036; stroke-width: 1.5;" x1="843.5" x2="1049.5" y1="246.1094" y2="246.1094"/><text fill="#000000" font-family="sans-serif" font-size="11" lengthAdjust="spacingAndGlyphs" textLength="94" x="848.5" y="260.3198">name (root only)</text><text fill="#000000" font-family="sans-serif" font-size="11" lengthAdjust="spacingAndGlyphs" textLength="107" x="848.5" y="273.1245">visibility (root only)</text><text fill="#000000" font-family="sans-serif" font-size="11" lengthAdjust="spacingAndGlyphs" textLength="171" x="848.5" y="285.9292">publishedAt (only while public)</text><text fill="#000000" font-family="sans-serif" font-size="11" lengthAdjust="spacingAndGlyphs" textLength="196" x="848.5" y="298.7339">GSI1PK, GSI1SK (only while public)</text><!--MD5=[bea10f60a87a5882b73288ca167ec97a]
class M2--><rect fill="#FEFECE" filter="url(#f111fu4pcjgcbi)" height="78.4141" id="M2" style="stroke: #A80036; stroke-width: 1.5;" width="158" x="867.5" y="341"/><ellipse cx="882.5" cy="357" fill="#ADD1B2" rx="11" ry="11" style="stroke: #A80036; stroke-width: 1.0;"/><path d="M885.4688,362.6406 Q884.8906,362.9375 884.25,363.0781 Q883.6094,363.2344 882.9063,363.2344 Q880.4063,363.2344 879.0781,361.5938 Q877.7656,359.9375 877.7656,356.8125 Q877.7656,353.6875 879.0781,352.0313 Q880.4063,350.375 882.9063,350.375 Q883.6094,350.375 884.25,350.5313 Q884.9063,350.6875 885.4688,350.9844 L885.4688,353.7031 Q884.8438,353.125 884.25,352.8594 Q883.6563,352.5781 883.0313,352.5781 Q881.6875,352.5781 881,353.6563 Q880.3125,354.7188 880.3125,356.8125 Q880.3125,358.9063 881,359.9844 Q881.6875,361.0469 883.0313,361.0469 Q883.6563,361.0469 884.25,360.7813 Q884.8438,360.5 885.4688,359.9219 L885.4688,362.6406 Z "/><text fill="#000000" font-family="sans-serif" font-size="12" lengthAdjust="spacingAndGlyphs" textLength="126" x="896.5" y="361.1543">SK = VIEW#{viewId}</text><line style="stroke: #A80036; stroke-width: 1.5;" x1="868.5" x2="1024.5" y1="373" y2="373"/><text fill="#000000" font-family="sans-serif" font-size="11" lengthAdjust="spacingAndGlyphs" textLength="32" x="873.5" y="387.2104">name</text><text fill="#000000" font-family="sans-serif" font-size="11" lengthAdjust="spacingAndGlyphs" textLength="31" x="873.5" y="400.0151">order</text><text fill="#000000" font-family="sans-serif" font-size="11" lengthAdjust="spacingAndGlyphs" textLength="52" x="873.5" y="412.8198">linkCount</text><!--MD5=[774ef4f0fda8ed40df71990d67f1d63e]
class M3--><rect fill="#FEFECE" filter="url(#f111fu4pcjgcbi)" height="168.0469" id="M3" style="stroke: #A80036; stroke-width: 1.5;" width="211" x="841" y="454"/><ellipse cx="856" cy="470" fill="#ADD1B2" rx="11" ry="11" style="stroke: #A80036; stroke-width: 1.0;"/><path d="M858.9688,475.6406 Q858.3906,475.9375 857.75,476.0781 Q857.1094,476.2344 856.4063,476.2344 Q853.9063,476.2344 852.5781,474.5938 Q851.2656,472.9375 851.2656,469.8125 Q851.2656,466.6875 852.5781,465.0313 Q853.9063,463.375 856.4063,463.375 Q857.1094,463.375 857.75,463.5313 Q858.4063,463.6875 858.9688,463.9844 L858.9688,466.7031 Q858.3438,466.125 857.75,465.8594 Q857.1563,465.5781 856.5313,465.5781 Q855.1875,465.5781 854.5,466.6563 Q853.8125,467.7188 853.8125,469.8125 Q853.8125,471.9063 854.5,472.9844 Q855.1875,474.0469 856.5313,474.0469 Q857.1563,474.0469 857.75,473.7813 Q858.3438,473.5 858.9688,472.9219 L858.9688,475.6406 Z "/><text fill="#000000" font-family="sans-serif" font-size="12" lengthAdjust="spacingAndGlyphs" textLength="179" x="870" y="474.1543">SK = NODE#{shortId}   (tile)</text><line style="stroke: #A80036; stroke-width: 1.5;" x1="842" x2="1051" y1="486" y2="486"/><text fill="#000000" font-family="sans-serif" font-size="11" lengthAdjust="spacingAndGlyphs" textLength="21" x="847" y="500.2104">title</text><text fill="#000000" font-family="sans-serif" font-size="11" lengthAdjust="spacingAndGlyphs" textLength="25" x="847" y="513.0151">date</text><text fill="#000000" font-family="sans-serif" font-size="11" lengthAdjust="spacingAndGlyphs" textLength="22" x="847" y="525.8198">size</text><text fill="#000000" font-family="sans-serif" font-size="11" lengthAdjust="spacingAndGlyphs" textLength="52" x="847" y="538.6245">positions</text><text fill="#000000" font-family="sans-serif" font-size="11" lengthAdjust="spacingAndGlyphs" textLength="66" x="847" y="551.4292">coverImage</text><text fill="#000000" font-family="sans-serif" font-size="11" lengthAdjust="spacingAndGlyphs" textLength="44" x="847" y="564.2339">preview</text><text fill="#000000" font-family="sans-serif" font-size="11" lengthAdjust="spacingAndGlyphs" textLength="42" x="847" y="577.0386">excerpt</text><text fill="#000000" font-family="sans-serif" font-size="11" lengthAdjust="spacingAndGlyphs" textLength="59" x="847" y="589.8433">childCount</text><text fill="#000000" font-family="sans-serif" font-size="11" lengthAdjust="spacingAndGlyphs" textLength="68" x="847" y="602.6479">imageCount</text><text fill="#000000" font-family="sans-serif" font-size="11" lengthAdjust="spacingAndGlyphs" textLength="56" x="847" y="615.4526">hasArticle</text><!--MD5=[f83f27d2182d7d4fcbbb3d5c4c17ba7e]
class M4--><rect fill="#FEFECE" filter="url(#f111fu4pcjgcbi)" height="65.6094" id="M4" style="stroke: #A80036; stroke-width: 1.5;" width="227" x="833" y="657"/><ellipse cx="848" cy="673" fill="#ADD1B2" rx="11" ry="11" style="stroke: #A80036; stroke-width: 1.0;"/><path d="M850.9688,678.6406 Q850.3906,678.9375 849.75,679.0781 Q849.1094,679.2344 848.4063,679.2344 Q845.9063,679.2344 844.5781,677.5938 Q843.2656,675.9375 843.2656,672.8125 Q843.2656,669.6875 844.5781,668.0313 Q845.9063,666.375 848.4063,666.375 Q849.1094,666.375 849.75,666.5313 Q850.4063,666.6875 850.9688,666.9844 L850.9688,669.7031 Q850.3438,669.125 849.75,668.8594 Q849.1563,668.5781 848.5313,668.5781 Q847.1875,668.5781 846.5,669.6563 Q845.8125,670.7188 845.8125,672.8125 Q845.8125,674.9063 846.5,675.9844 Q847.1875,677.0469 848.5313,677.0469 Q849.1563,677.0469 849.75,676.7813 Q850.3438,676.5 850.9688,675.9219 L850.9688,678.6406 Z "/><text fill="#000000" font-family="sans-serif" font-size="12" lengthAdjust="spacingAndGlyphs" textLength="195" x="862" y="677.1543">SK = LINK#{viewId}#{lo}#{hi}</text><line style="stroke: #A80036; stroke-width: 1.5;" x1="834" x2="1059" y1="689" y2="689"/><text fill="#000000" font-family="sans-serif" font-size="11" lengthAdjust="spacingAndGlyphs" textLength="24" x="839" y="703.2104">type</text><text fill="#000000" font-family="sans-serif" font-size="11" lengthAdjust="spacingAndGlyphs" textLength="27" x="839" y="716.0151">label</text><!--MD5=[926f502e143d9ea62a9e3ce25d7b4f6f]
class C1--><rect fill="#FEFECE" filter="url(#f111fu4pcjgcbi)" height="91.2188" id="C1" style="stroke: #A80036; stroke-width: 1.5;" width="106" x="1625.5" y="433.5"/><ellipse cx="1640.5" cy="449.5" fill="#ADD1B2" rx="11" ry="11" style="stroke: #A80036; stroke-width: 1.0;"/><path d="M1643.4688,455.1406 Q1642.8906,455.4375 1642.25,455.5781 Q1641.6094,455.7344 1640.9063,455.7344 Q1638.4063,455.7344 1637.0781,454.0938 Q1635.7656,452.4375 1635.7656,449.3125 Q1635.7656,446.1875 1637.0781,444.5313 Q1638.4063,442.875 1640.9063,442.875 Q1641.6094,442.875 1642.25,443.0313 Q1642.9063,443.1875 1643.4688,443.4844 L1643.4688,446.2031 Q1642.8438,445.625 1642.25,445.3594 Q1641.6563,445.0781 1641.0313,445.0781 Q1639.6875,445.0781 1639,446.1563 Q1638.3125,447.2188 1638.3125,449.3125 Q1638.3125,451.4063 1639,452.4844 Q1639.6875,453.5469 1641.0313,453.5469 Q1641.6563,453.5469 1642.25,453.2813 Q1642.8438,453 1643.4688,452.4219 L1643.4688,455.1406 Z "/><text fill="#000000" font-family="sans-serif" font-size="12" lengthAdjust="spacingAndGlyphs" textLength="74" x="1654.5" y="453.6543">SK = DETAIL</text><line style="stroke: #A80036; stroke-width: 1.5;" x1="1626.5" x2="1730.5" y1="465.5" y2="465.5"/><text fill="#000000" font-family="sans-serif" font-size="11" lengthAdjust="spacingAndGlyphs" textLength="27" x="1631.5" y="479.7104">body</text><text fill="#000000" font-family="sans-serif" font-size="11" lengthAdjust="spacingAndGlyphs" textLength="25" x="1631.5" y="492.5151">note</text><text fill="#000000" font-family="sans-serif" font-size="11" lengthAdjust="spacingAndGlyphs" textLength="22" x="1631.5" y="505.3198">urls</text><text fill="#000000" font-family="sans-serif" font-size="11" lengthAdjust="spacingAndGlyphs" textLength="42" x="1631.5" y="518.1245">images</text><!--MD5=[7a6ae922897b32380e18008d17b1b0ef]
class C2--><rect fill="#FEFECE" filter="url(#f111fu4pcjgcbi)" height="52.8047" id="C2" style="stroke: #A80036; stroke-width: 1.5;" width="113" x="1622" y="559.5"/><ellipse cx="1637" cy="575.5" fill="#ADD1B2" rx="11" ry="11" style="stroke: #A80036; stroke-width: 1.0;"/><path d="M1639.9688,581.1406 Q1639.3906,581.4375 1638.75,581.5781 Q1638.1094,581.7344 1637.4063,581.7344 Q1634.9063,581.7344 1633.5781,580.0938 Q1632.2656,578.4375 1632.2656,575.3125 Q1632.2656,572.1875 1633.5781,570.5313 Q1634.9063,568.875 1637.4063,568.875 Q1638.1094,568.875 1638.75,569.0313 Q1639.4063,569.1875 1639.9688,569.4844 L1639.9688,572.2031 Q1639.3438,571.625 1638.75,571.3594 Q1638.1563,571.0781 1637.5313,571.0781 Q1636.1875,571.0781 1635.5,572.1563 Q1634.8125,573.2188 1634.8125,575.3125 Q1634.8125,577.4063 1635.5,578.4844 Q1636.1875,579.5469 1637.5313,579.5469 Q1638.1563,579.5469 1638.75,579.2813 Q1639.3438,579 1639.9688,578.4219 L1639.9688,581.1406 Z "/><text fill="#000000" font-family="sans-serif" font-size="12" lengthAdjust="spacingAndGlyphs" textLength="81" x="1651" y="579.6543">SK = ARTICLE</text><line style="stroke: #A80036; stroke-width: 1.5;" x1="1623" x2="1734" y1="591.5" y2="591.5"/><text fill="#000000" font-family="sans-serif" font-size="11" lengthAdjust="spacingAndGlyphs" textLength="59" x="1628" y="605.7104">markdown</text><!--MD5=[a14d43cc52aec5bb980abe81a47d14e0]
class G1--><rect fill="#FEFECE" filter="url(#f111fu4pcjgcbi)" height="73.6094" id="G1" style="stroke: #A80036; stroke-width: 1.5;" width="247" x="1555" y="206"/><ellipse cx="1570" cy="222" fill="#ADD1B2" rx="11" ry="11" style="stroke: #A80036; stroke-width: 1.0;"/><path d="M1572.9688,227.6406 Q1572.3906,227.9375 1571.75,228.0781 Q1571.1094,228.2344 1570.4063,228.2344 Q1567.9063,228.2344 1566.5781,226.5938 Q1565.2656,224.9375 1565.2656,221.8125 Q1565.2656,218.6875 1566.5781,217.0313 Q1567.9063,215.375 1570.4063,215.375 Q1571.1094,215.375 1571.75,215.5313 Q1572.4063,215.6875 1572.9688,215.9844 L1572.9688,218.7031 Q1572.3438,218.125 1571.75,217.8594 Q1571.1563,217.5781 1570.5313,217.5781 Q1569.1875,217.5781 1568.5,218.6563 Q1567.8125,219.7188 1567.8125,221.8125 Q1567.8125,223.9063 1568.5,224.9844 Q1569.1875,226.0469 1570.5313,226.0469 Q1571.1563,226.0469 1571.75,225.7813 Q1572.3438,225.5 1572.9688,224.9219 L1572.9688,227.6406 Z "/><text fill="#000000" font-family="sans-serif" font-size="12" lengthAdjust="spacingAndGlyphs" textLength="215" x="1584" y="226.1543">GSI1SK = {publishedAt}#{mapId}</text><line style="stroke: #A80036; stroke-width: 1.5;" x1="1556" x2="1801" y1="238" y2="238"/><text fill="#000000" font-family="sans-serif" font-size="11" lengthAdjust="spacingAndGlyphs" textLength="94" x="1561" y="252.2104">only public Maps</text><line style="stroke: #A80036; stroke-width: 1.5;" x1="1556" x2="1801" y1="258.8047" y2="258.8047"/><text fill="#000000" font-family="sans-serif" font-size="11" lengthAdjust="spacingAndGlyphs" textLength="97" x="1561" y="273.0151">name (projected)</text><!--MD5=[a25bb0e36df0ffd0bfbf6a1fa2085e96]
class D1--><rect fill="#FEFECE" filter="url(#f111fu4pcjgcbi)" height="78.4141" id="D1" style="stroke: #A80036; stroke-width: 1.5;" width="180" x="170" y="289"/><ellipse cx="185" cy="305" fill="#ADD1B2" rx="11" ry="11" style="stroke: #A80036; stroke-width: 1.0;"/><path d="M187.9688,310.6406 Q187.3906,310.9375 186.75,311.0781 Q186.1094,311.2344 185.4063,311.2344 Q182.9063,311.2344 181.5781,309.5938 Q180.2656,307.9375 180.2656,304.8125 Q180.2656,301.6875 181.5781,300.0313 Q182.9063,298.375 185.4063,298.375 Q186.1094,298.375 186.75,298.5313 Q187.4063,298.6875 187.9688,298.9844 L187.9688,301.7031 Q187.3438,301.125 186.75,300.8594 Q186.1563,300.5781 185.5313,300.5781 Q184.1875,300.5781 183.5,301.6563 Q182.8125,302.7188 182.8125,304.8125 Q182.8125,306.9063 183.5,307.9844 Q184.1875,309.0469 185.5313,309.0469 Q186.1563,309.0469 186.75,308.7813 Q187.3438,308.5 187.9688,307.9219 L187.9688,310.6406 Z "/><text fill="#000000" font-family="sans-serif" font-size="12" lengthAdjust="spacingAndGlyphs" textLength="148" x="199" y="309.1543">SK = MAP#{rootMapId}</text><line style="stroke: #A80036; stroke-width: 1.5;" x1="171" x2="349" y1="321" y2="321"/><text fill="#000000" font-family="sans-serif" font-size="11" lengthAdjust="spacingAndGlyphs" textLength="57" x="176" y="335.2104">ownerSub</text><text fill="#000000" font-family="sans-serif" font-size="11" lengthAdjust="spacingAndGlyphs" textLength="54" x="176" y="348.0151">createdAt</text><text fill="#000000" font-family="sans-serif" font-size="11" lengthAdjust="spacingAndGlyphs" textLength="104" x="176" y="360.8198">immutable pointer</text><!--MD5=[f1ea30c547b5e1e4ca361f12ac3dec63]
link M3 to C1--><path d="M1052.09,529.55 C1208.41,516.91 1497.69,493.53 1620.25,483.63 " fill="none" id="M3-&gt;C1" style="stroke: #A80036; stroke-width: 1.0; stroke-dasharray: 7.0,7.0;"/><polygon fill="#A80036" points="1625.25,483.22,1615.9589,479.9526,1620.266,483.6199,1616.5987,487.9269,1625.25,483.22" style="stroke: #A80036; stroke-width: 1.0;"/><text fill="#000000" font-family="sans-serif" font-size="13" lengthAdjust="spacingAndGlyphs" textLength="111" x="1212.5" y="489.0669">full text and links,</text><text fill="#000000" font-family="sans-serif" font-size="13" lengthAdjust="spacingAndGlyphs" textLength="104" x="1216" y="504.1997">fetched on open</text><!--MD5=[a1f733974ea3c5ff15059d69d67c2c6c]
link M3 to C2--><path d="M1052.01,550 C1097.97,554.93 1152.61,560.34 1202,564 C1350.83,575.04 1526.3,581.45 1616.77,584.27 " fill="none" id="M3-&gt;C2" style="stroke: #A80036; stroke-width: 1.0; stroke-dasharray: 7.0,7.0;"/><polygon fill="#A80036" points="1621.8,584.43,1612.9301,580.1493,1616.8025,584.2729,1612.6788,588.1453,1621.8,584.43" style="stroke: #A80036; stroke-width: 1.0;"/><text fill="#000000" font-family="sans-serif" font-size="13" lengthAdjust="spacingAndGlyphs" textLength="130" x="1203" y="560.0669">only when hasArticle</text><!--MD5=[34c9a83ccdd8bb4c1019e04cc0837f3d]
link U2 to M1--><path d="M363.11,190.25 C490.39,201.78 706.99,221.4 837.12,233.18 " fill="none" id="U2-&gt;M1" style="stroke: #A80036; stroke-width: 1.0; stroke-dasharray: 7.0,7.0;"/><polygon fill="#A80036" points="842.48,233.67,833.8704,228.8872,837.4997,233.2264,833.1606,236.8557,842.48,233.67" style="stroke: #A80036; stroke-width: 1.0;"/><text fill="#000000" font-family="sans-serif" font-size="13" lengthAdjust="spacingAndGlyphs" textLength="57" x="578.5" y="187.0669">root Map</text><text fill="#000000" font-family="sans-serif" font-size="13" lengthAdjust="spacingAndGlyphs" textLength="166" x="524" y="202.1997">(nested Map id = node id)</text><!--MD5=[1ef2613cc9967697f7cb9320b2fca846]
link D1 to M1--><path d="M350.14,316.93 C475.25,301.4 702.67,273.15 837.32,256.43 " fill="none" id="D1-&gt;M1" style="stroke: #A80036; stroke-width: 1.0; stroke-dasharray: 7.0,7.0;"/><polygon fill="#A80036" points="842.47,255.79,833.0474,252.9239,837.5077,256.4032,834.0285,260.8635,842.47,255.79" style="stroke: #A80036; stroke-width: 1.0;"/><text fill="#000000" font-family="sans-serif" font-size="13" lengthAdjust="spacingAndGlyphs" textLength="153" x="530.5" y="272.0669">name lives in META only</text><!--MD5=[a4a4904cf844f82773c4a94ed778ff08]
link M1 to G1--><path d="M1050.54,243 C1181.63,243 1408,243 1549.87,243 " fill="none" id="M1-&gt;G1" style="stroke: #A80036; stroke-width: 1.0; stroke-dasharray: 7.0,7.0;"/><polygon fill="#A80036" points="1554.89,243,1545.89,239,1549.89,243,1545.89,247,1554.89,243" style="stroke: #A80036; stroke-width: 1.0;"/><text fill="#000000" font-family="sans-serif" font-size="13" lengthAdjust="spacingAndGlyphs" textLength="112" x="1212" y="224.0669">index entry exists</text><text fill="#000000" font-family="sans-serif" font-size="13" lengthAdjust="spacingAndGlyphs" textLength="102" x="1217" y="239.1997">only while public</text><!--MD5=[83ce2bdb23276c177aaaa987bc457d2e]
@startuml physical_layout
hide empty members
skinparam classAttributeIconSize 0
skinparam packageStyle rectangle
left to right direction

package "PK = USER#{sub}   (read: list my Maps, authorize a write)" {
  class "SK = PROFILE" as U1 {
    createdAt
  }
  class "SK = MEMBER#{rootMapId}" as U2 {
    role
    joinedAt
  }
}

package "PK = MAP#{mapId}   (ONE Query = open a Map: tiles only)" {
  class "SK = META" as M1 {
    name (root only)
    nodeCount
    viewCount
    visibility (root only)
    publishedAt (only while public)
    GSI1PK, GSI1SK (only while public)
  }
  class "SK = VIEW#{viewId}" as M2 {
    name
    order
    linkCount
  }
  class "SK = NODE#{shortId}   (tile)" as M3 {
    title
    date
    size
    positions
    coverImage
    preview
    excerpt
    childCount
    imageCount
    hasArticle
  }
  class "SK = LINK#{viewId}#{lo}#{hi}" as M4 {
    type
    label
  }
}

package "PK = CONTENT#{nodeId}   (ONE Query = open a node)" {
  class "SK = DETAIL" as C1 {
    body
    note
    urls
    images
  }
  class "SK = ARTICLE" as C2 {
    markdown
  }
}

package "GSI1 (sparse): GSI1PK = MAP#PUBLIC   (gallery: newest-published first, no Scan)" {
  class "GSI1SK = {publishedAt}#{mapId}" as G1 {
    name (projected)
    only public Maps
  }
}

package "PK = MAP#ALL   (constant key: ops list of all Maps, no Scan)" {
  class "SK = MAP#{rootMapId}" as D1 {
    ownerSub
    createdAt
    immutable pointer
  }
}

M3 ..> C1 : full text and links,\nfetched on open
M3 ..> C2 : only when hasArticle
U2 ..> M1 : root Map\n(nested Map id = node id)
D1 ..> M1 : name lives in META only
M1 ..> G1 : index entry exists\nonly while public
@enduml

PlantUML version 1.2020.02(Sun Mar 01 11:22:07 CET 2020)
(GPL source distribution)
Java Runtime: OpenJDK Runtime Environment
JVM: OpenJDK 64-Bit Server VM
Java Version: 21.0.12+8-1-24.04-Ubuntu
Operating System: Linux
Default Encoding: UTF-8
Language: en
Country: null
--></g></svg>